<?xml version="1.0" standalone="no"?>
<!DOCTYPE svg PUBLIC "-//W3C//DTD SVG 20010904//EN"
 "http://www.w3.org/TR/2001/REC-SVG-20010904/DTD/svg10.dtd">
<svg version="1.0" xmlns="http://www.w3.org/2000/svg"
 width="700.000000pt" height="700.000000pt" viewBox="0 0 700.000000 700.000000"
 preserveAspectRatio="xMidYMid meet">
<metadata>
Created by potrace 1.14, written by Peter Selinger 2001-2017
</metadata>
<g transform="translate(0.000000,700.000000) scale(0.100000,-0.100000)"
fill="#000000" stroke="none">
<path d="M3318 6924 c-2 -1 -41 -5 -88 -9 -47 -3 -96 -8 -110 -9 -14 -2 -45
-7 -70 -10 -404 -58 -748 -164 -1101 -341 -571 -287 -1075 -762 -1408 -1327
-163 -277 -321 -671 -376 -938 -44 -212 -62 -317 -71 -415 -3 -38 -9 -97 -13
-130 -12 -107 -3 -557 13 -642 2 -10 7 -46 11 -78 4 -33 9 -69 11 -80 2 -11 9
-49 15 -84 5 -36 12 -67 13 -70 2 -3 7 -24 10 -46 14 -92 101 -362 171 -535
178 -435 418 -796 749 -1125 251 -250 458 -409 730 -564 269 -152 621 -293
881 -351 28 -7 59 -14 70 -16 67 -16 224 -44 268 -49 29 -3 63 -7 77 -10 145
-25 626 -25 795 0 29 4 47 7 145 20 60 9 173 31 251 50 35 9 76 18 91 21 15 3
89 25 165 50 435 142 833 365 1183 662 94 80 323 313 391 397 35 44 67 82 70
85 11 10 117 158 175 245 164 244 299 525 392 815 37 114 68 224 78 275 2 11
13 65 24 120 25 130 29 149 35 215 4 30 8 66 10 78 24 145 24 561 0 747 -2 17
-6 53 -9 80 -46 389 -208 874 -412 1230 -436 761 -1137 1327 -1962 1584 -124
39 -257 74 -317 85 -16 2 -70 12 -120 21 -124 22 -131 23 -210 30 -38 3 -79 9
-90 12 -19 6 -462 13 -467 7z m27 -324 c39 -5 90 -12 115 -15 104 -12 136 -16
160 -20 14 -2 43 -7 65 -9 22 -3 76 -10 120 -16 44 -5 98 -12 120 -15 22 -2
58 -7 80 -10 22 -3 63 -7 90 -10 28 -3 68 -7 90 -10 22 -3 60 -8 85 -10 197
-16 259 -32 450 -114 96 -42 279 -134 330 -166 22 -14 42 -25 44 -25 2 0 49
-29 103 -65 95 -63 97 -65 63 -66 -19 0 -71 -3 -115 -6 -192 -11 -783 -4 -862
11 -10 2 -62 7 -117 11 -54 4 -113 9 -130 11 -40 5 -111 13 -178 19 -29 3 -69
7 -88 10 -19 3 -57 7 -85 10 -27 3 -61 7 -75 10 -14 2 -50 6 -80 9 -81 9 -132
15 -160 21 -14 3 -47 8 -75 11 -27 3 -59 7 -70 9 -11 1 -47 6 -80 10 -33 4
-69 9 -79 11 -11 2 -56 8 -100 14 -45 6 -92 13 -106 15 -14 2 -50 7 -80 10
-30 3 -66 8 -80 10 -14 2 -50 6 -80 10 -30 3 -71 8 -90 10 -19 2 -64 7 -100
10 -36 4 -81 8 -100 10 -19 2 -71 7 -115 10 -44 4 -81 8 -82 9 -1 1 184 80
262 112 104 41 346 113 437 129 18 4 51 10 73 15 66 14 268 43 333 47 20 2 69
-2 107 -7z m-940 -724 c108 -7 226 -16 270 -21 22 -2 69 -7 105 -10 36 -3 83
-8 105 -11 22 -2 60 -6 85 -8 44 -5 117 -13 175 -21 56 -7 210 -26 250 -31 22
-2 69 -9 105 -14 36 -5 83 -12 105 -14 22 -2 78 -9 125 -16 95 -12 106 -13
275 -34 66 -8 145 -18 175 -21 30 -3 71 -8 90 -10 33 -4 75 -9 180 -19 25 -3
88 -8 140 -11 52 -4 118 -9 145 -12 28 -3 277 -6 554 -8 l505 -3 35 -38 c36
-39 71 -82 130 -159 17 -22 40 -51 51 -65 10 -14 16 -28 12 -31 -8 -6 -220
-40 -350 -54 -26 -3 -63 -8 -82 -10 -19 -2 -66 -7 -105 -10 -38 -4 -86 -8
-105 -10 -221 -23 -916 -23 -1105 -1 -17 2 -68 7 -115 11 -47 3 -101 8 -120
10 -19 2 -82 9 -140 15 -127 13 -172 19 -225 26 -43 5 -78 9 -164 19 -30 4
-61 8 -70 10 -9 1 -59 8 -111 15 -52 6 -106 13 -120 16 -21 3 -72 10 -225 30
-16 2 -75 11 -130 18 -55 8 -125 17 -155 21 -30 3 -71 8 -90 10 -62 8 -113 14
-185 21 -111 11 -125 12 -215 19 -47 4 -101 8 -120 10 -164 16 -841 24 -942
11 -21 -2 -38 -1 -38 3 0 17 165 190 295 309 59 54 73 62 109 63 65 1 180 9
183 13 5 4 627 -2 708 -8z m-15 -820 c58 -4 128 -8 155 -11 28 -2 86 -7 130
-10 44 -4 91 -8 105 -10 14 -2 59 -7 100 -10 41 -3 86 -8 100 -10 14 -2 50 -6
80 -10 30 -3 66 -8 80 -10 14 -3 66 -9 115 -15 50 -5 107 -12 128 -15 78 -11
104 -14 152 -20 28 -3 79 -10 115 -15 36 -5 88 -12 115 -15 28 -4 64 -8 80
-10 130 -17 283 -35 430 -51 32 -3 66 -7 75 -9 8 -1 60 -6 115 -10 55 -5 111
-9 125 -11 291 -27 1153 -26 1480 1 25 2 88 7 140 10 52 4 98 9 101 11 6 3 40
-67 88 -183 26 -64 28 -73 13 -77 -89 -26 -356 -80 -522 -105 -102 -15 -131
-19 -195 -27 -33 -3 -68 -8 -78 -10 -10 -2 -55 -6 -100 -9 -45 -4 -98 -8 -117
-10 -188 -18 -710 -25 -937 -13 l-101 6 -69 54 c-243 194 -474 279 -773 284
-227 4 -392 -34 -593 -137 -32 -17 -66 -28 -75 -25 -9 2 -42 7 -73 11 -31 3
-65 7 -75 9 -11 2 -50 7 -89 11 -38 4 -83 8 -98 10 -15 2 -60 6 -100 10 -40 4
-85 9 -102 11 -16 2 -66 6 -110 9 -44 4 -102 8 -130 10 -329 27 -914 22 -1270
-9 -161 -15 -205 -18 -205 -13 0 9 32 83 82 189 46 96 53 107 82 112 59 11 81
16 132 26 28 6 61 13 75 15 100 17 152 24 204 30 32 4 67 8 76 10 9 2 52 6 95
10 43 4 90 9 104 10 14 2 84 6 155 10 72 4 131 8 133 10 5 4 547 -3 652 -9z
m-20 -821 c58 -4 106 -8 107 -9 1 -1 -9 -19 -23 -40 -42 -62 -112 -209 -137
-285 l-22 -72 -95 6 c-52 4 -111 8 -130 10 -246 22 -908 22 -1125 0 -22 -2
-80 -7 -130 -11 -139 -9 -166 -12 -220 -18 -27 -3 -83 -8 -124 -11 l-73 -6 6
63 c7 80 24 170 34 180 21 21 475 119 662 143 25 3 56 8 70 10 14 2 45 6 70 9
25 3 70 8 100 11 64 8 110 11 275 20 66 4 121 8 123 10 6 5 535 -3 632 -10z
m4200 -199 c0 -2 4 -25 9 -52 5 -27 12 -78 15 -115 l6 -65 -72 -19 c-40 -11
-77 -20 -83 -22 -5 -1 -46 -11 -90 -22 -95 -23 -311 -67 -375 -76 -25 -3 -52
-8 -60 -10 -26 -7 -332 -45 -415 -51 -44 -3 -91 -7 -105 -10 -51 -8 -301 -18
-474 -18 -172 -1 -179 0 -181 19 -12 128 -41 260 -75 339 -10 25 -16 47 -12
50 4 2 34 2 67 0 33 -2 96 -6 140 -9 102 -5 690 -6 815 -1 154 7 343 17 391
21 24 2 91 7 149 10 58 4 112 9 121 10 8 2 53 6 100 10 46 4 85 8 86 9 4 3 43
5 43 2z m-4375 -615 l60 -1 3 -48 c4 -71 30 -184 63 -280 16 -48 29 -88 29
-89 0 -1 -15 0 -32 2 -342 39 -956 48 -1378 20 -123 -8 -238 -17 -260 -20 -14
-2 -61 -7 -105 -10 -44 -4 -95 -8 -113 -10 -38 -3 -38 -3 -46 55 -19 149 -19
168 0 178 17 8 87 27 137 37 10 3 27 7 37 10 10 3 27 8 37 10 10 2 61 13 113
25 107 23 292 57 360 65 54 6 127 16 156 20 11 2 52 6 90 9 38 4 87 9 109 11
22 2 89 7 150 10 60 4 111 7 112 8 2 2 387 1 478 -2z m4412 -208 c-3 -4 -8
-39 -12 -78 -6 -67 -8 -83 -20 -139 -5 -22 -18 -27 -172 -65 -184 -44 -341
-75 -483 -96 -14 -2 -38 -6 -55 -9 -53 -8 -109 -16 -150 -20 -22 -3 -67 -7
-100 -11 -33 -3 -73 -8 -90 -10 -16 -2 -64 -6 -105 -9 -41 -4 -111 -9 -155
-12 -106 -8 -704 -12 -732 -5 -22 6 -22 7 11 56 48 71 110 198 138 281 l24 71
50 -3 c27 -1 119 -5 204 -9 270 -13 721 -8 980 10 25 1 88 6 140 9 52 3 118 8
145 11 63 7 124 12 222 20 43 4 79 8 80 9 7 7 84 6 80 -1z m-4267 -616 c41 -3
122 -9 178 -13 57 -3 111 -7 120 -9 10 -2 20 -4 23 -4 3 -1 14 -9 25 -19 152
-138 416 -260 623 -289 67 -10 320 -10 376 -1 103 17 240 56 295 83 97 49 127
57 181 50 77 -10 96 -12 174 -20 341 -36 579 -48 940 -47 248 0 490 6 640 17
33 2 105 7 160 10 106 6 170 11 273 21 34 3 62 3 62 0 0 -6 -65 -154 -104
-237 l-26 -56 -102 -21 c-119 -25 -222 -43 -328 -57 -25 -3 -72 -10 -105 -15
-83 -12 -138 -18 -220 -26 -38 -3 -86 -7 -105 -9 -250 -26 -914 -25 -1170 0
-19 2 -75 6 -123 10 -48 3 -96 8 -107 10 -10 2 -50 6 -87 10 -68 6 -98 9 -183
20 -25 3 -61 7 -80 9 -19 2 -55 7 -80 10 -61 9 -106 15 -160 21 -46 6 -113 15
-140 20 -8 2 -44 6 -80 10 -36 3 -72 8 -80 10 -8 2 -36 7 -62 10 -26 3 -79 10
-118 15 -39 5 -92 12 -118 15 -26 3 -57 8 -68 10 -12 2 -48 6 -80 10 -33 3
-72 8 -89 10 -298 37 -785 68 -1075 67 -230 0 -683 -21 -811 -38 l-36 -5 -51
121 c-29 67 -52 125 -52 130 0 11 89 36 200 56 14 3 57 11 95 19 39 8 90 17
115 21 25 3 54 8 65 10 11 1 36 5 55 8 51 8 186 24 255 31 33 3 78 8 100 10
22 3 101 7 175 11 74 3 136 7 137 8 5 5 502 -2 573 -7z m15 -822 c77 -3 154
-8 170 -10 17 -2 68 -7 115 -10 47 -3 101 -8 120 -10 19 -2 64 -7 100 -10 36
-3 81 -8 100 -10 19 -3 54 -7 78 -10 23 -3 61 -7 85 -10 23 -3 58 -7 77 -10
19 -3 51 -7 70 -9 28 -4 171 -23 308 -41 12 -1 50 -6 85 -10 34 -4 69 -8 77
-10 16 -3 63 -9 235 -30 22 -2 56 -6 75 -9 19 -2 64 -7 100 -10 75 -7 158 -17
181 -21 8 -2 59 -6 112 -10 54 -3 105 -8 115 -10 9 -1 78 -6 152 -10 74 -4
162 -9 195 -11 145 -9 877 -4 984 8 23 2 16 -11 -45 -79 -78 -88 -259 -268
-289 -288 -63 -41 -980 -55 -1315 -20 -19 2 -71 7 -115 10 -44 4 -93 8 -110
10 -16 2 -61 6 -100 10 -38 3 -81 8 -95 10 -14 2 -54 6 -90 10 -36 4 -76 8
-90 10 -14 2 -45 6 -70 10 -25 3 -61 8 -80 10 -19 3 -55 7 -80 10 -25 3 -56 7
-69 10 -13 2 -49 7 -80 10 -31 4 -63 8 -71 10 -8 2 -35 7 -60 10 -44 5 -99 13
-150 20 -14 2 -63 9 -110 15 -82 11 -111 15 -182 24 -18 3 -60 8 -93 11 -33 3
-71 8 -85 10 -38 7 -151 17 -330 30 -47 4 -103 9 -125 11 -22 3 -224 7 -450
10 l-410 5 -30 33 c-74 82 -205 251 -205 264 0 4 8 8 18 9 20 1 96 11 132 18
24 4 70 11 140 19 19 2 70 7 112 11 43 4 90 8 105 10 16 2 93 7 173 11 80 3
146 7 147 9 6 4 436 -3 568 -10z m-75 -819 c96 -4 191 -9 210 -11 19 -2 76 -6
125 -10 50 -4 104 -8 120 -10 17 -1 64 -6 105 -9 41 -4 86 -9 100 -11 14 -2
52 -6 85 -10 123 -13 141 -15 175 -20 19 -3 53 -7 75 -10 22 -2 60 -7 85 -10
73 -10 102 -14 155 -20 55 -7 72 -9 195 -25 47 -6 96 -13 110 -15 14 -2 54 -6
90 -10 36 -3 72 -8 80 -10 8 -2 42 -6 75 -10 33 -3 71 -8 85 -10 14 -2 57 -6
95 -10 39 -3 81 -8 95 -10 26 -4 90 -10 225 -20 44 -3 105 -8 135 -10 30 -2
77 -4 104 -4 32 -1 46 -5 40 -10 -15 -16 -231 -106 -344 -144 -154 -52 -373
-106 -497 -123 -26 -3 -50 -8 -53 -9 -5 -3 -30 -6 -219 -24 -100 -10 -177 -6
-311 14 -14 2 -63 9 -110 15 -47 6 -96 13 -110 15 -14 2 -99 14 -190 25 -91
12 -176 23 -190 25 -14 2 -47 7 -75 10 -27 3 -70 8 -95 11 -91 11 -346 107
-534 201 -112 56 -311 173 -380 223 l-38 29 53 3 c84 5 336 2 529 -6z"/>
</g>
</svg>
